<svg xmlns="http://www.w3.org/2000/svg" viewBox="0 0 310 450"><defs><style>.cls-1{fill:#fff;}.cls-2{font-size:30px;}.cls-11,.cls-2,.cls-6{fill:#3e3e3f;}.cls-11,.cls-14,.cls-2,.cls-6{font-family:FiraSans-Light, Fira Sans;}.cls-3{letter-spacing:-0.01em;}.cls-4{fill:none;stroke:#e6e6e6;stroke-miterlimit:10;}.cls-5{fill:#ffbd66;}.cls-11,.cls-14,.cls-6{font-size:16px;}.cls-12,.cls-6{letter-spacing:-0.01em;}.cls-7{letter-spacing:-0.02em;}.cls-8{letter-spacing:0em;}.cls-9{letter-spacing:-0.08em;}.cls-10{letter-spacing:0em;}.cls-13{fill:#ccc;}.cls-14{fill:#aaa;}.cls-15{letter-spacing:-0.08em;}.cls-16{letter-spacing:-0.02em;}.cls-17{letter-spacing:0em;}.cls-18{letter-spacing:-0.01em;}.cls-19{letter-spacing:-0.07em;}.cls-20{letter-spacing:-0.01em;}.cls-21{letter-spacing:-0.04em;}</style></defs><title>Asset 3</title><g id="Layer_2" data-name="Layer 2"><g id="Content"><g id="Pricing_Page_-_Horizontal" data-name="Pricing Page - Horizontal"><g id="Silver"><rect class="cls-1" width="310" height="450" rx="6" ry="6"/><text class="cls-2" transform="translate(83.23 49.5)">1 hr - 3h<tspan class="cls-3" x="110.34" y="0">r</tspan><tspan x="121.23" y="0">s </tspan></text><line class="cls-4" y1="79.5" x2="310" y2="79.5"/><polygon class="cls-5" points="56.91 126.5 59.61 131.98 65.66 132.86 61.28 137.13 62.32 143.16 56.91 140.31 51.49 143.16 52.53 137.13 48.15 132.86 54.2 131.98 56.91 126.5"/><text class="cls-6" transform="translate(80 141.97)">$<tspan class="cls-7" x="8.26" y="0">9</tspan><tspan class="cls-8" x="16.22" y="0">.9</tspan><tspan class="cls-9" x="27.82" y="0">9</tspan><tspan class="cls-10" x="34.83" y="0">/hr</tspan></text><polygon class="cls-5" points="56.91 176.5 59.61 181.98 65.66 182.86 61.28 187.13 62.32 193.16 56.91 190.31 51.49 193.16 52.53 187.13 48.15 182.86 54.2 181.98 56.91 176.5"/><text class="cls-11" transform="translate(80 191.97)">Sa<tspan class="cls-12" x="17.2" y="0">d</tspan><tspan class="cls-8" x="26.4" y="0">en Only</tspan></text><polygon class="cls-13" points="56.91 226.5 59.61 231.98 65.66 232.86 61.28 237.13 62.32 243.16 56.91 240.31 51.49 243.16 52.53 237.13 48.15 232.86 54.2 231.98 56.91 226.5"/><text class="cls-14" transform="translate(80 241.97)">Full <tspan class="cls-15" x="30.51" y="0">T</tspan><tspan x="37.15" y="0">ank when </tspan><tspan class="cls-16" x="110.27" y="0">y</tspan><tspan x="117.52" y="0">ou pick up</tspan></text><polygon class="cls-13" points="56.91 276.5 59.61 281.98 65.66 282.86 61.28 287.13 62.32 293.16 56.91 290.31 51.49 293.16 52.53 287.13 48.15 282.86 54.2 281.98 56.91 276.5"/><text class="cls-14" transform="translate(80 291.97)">2<tspan class="cls-7" x="7.66" y="0">4</tspan><tspan x="15.63" y="0">/7 </tspan><tspan class="cls-12" x="35.41" y="0">r</tspan><tspan class="cls-17" x="41.21" y="0">oad si</tspan><tspan class="cls-18" x="84.49" y="0">d</tspan><tspan class="cls-17" x="93.69" y="0">e Assistan</tspan><tspan class="cls-12" x="165.77" y="0">c</tspan><tspan class="cls-10" x="173.12" y="0">e</tspan></text><polygon class="cls-13" points="56.91 326.5 59.61 331.98 65.66 332.86 61.28 337.13 62.32 343.16 56.91 340.31 51.49 343.16 52.53 337.13 48.15 332.86 54.2 331.98 56.91 326.5"/><text class="cls-14" transform="translate(80 341.97)"><tspan class="cls-19">P</tspan><tspan x="8" y="0">AI &amp; PEC</tspan></text><polygon class="cls-13" points="56.91 376.5 59.61 381.98 65.66 382.86 61.28 387.13 62.32 393.16 56.91 390.31 51.49 393.16 52.53 387.13 48.15 382.86 54.2 381.98 56.91 376.5"/><text class="cls-14" transform="translate(80 391.97)"><tspan class="cls-20">D</tspan><tspan x="9.95" y="0">ama</tspan><tspan class="cls-16" x="40.75" y="0">g</tspan><tspan class="cls-17" x="48.56" y="0">e </tspan><tspan class="cls-21" x="61.63" y="0">W</tspan><tspan x="74.02" y="0">ai</tspan><tspan class="cls-18" x="86.91" y="0">v</tspan><tspan x="94.27" y="0">er</tspan></text></g></g></g></g></svg>