<svg id="Layer_1" data-name="Layer 1" xmlns="http://www.w3.org/2000/svg" viewBox="0 0 167.95 63.92"><defs><style>.cls-1{fill:#e53935;}.cls-2{font-size:12px;font-family:MyriadPro-Regular, Myriad Pro;}.cls-3{letter-spacing:-0.04em;}</style></defs><title>Untitled-1</title><path class="cls-1" d="M688.86,376.13c-18.22-8.1-25.11-7.52-41.45-7.52-24.18,0-30.57,6.51-39.4,11.43s-.14,3.33-27.91,6.51c-11.61,1.33-18.27,2.74-22.2,5.29s-5.49,8.46-3.45,12.78a.31.31,0,0,0,.58-.14c-.11-4.41,2.75-14.76,32-14.76,25,0,10.27-1.58,32.26-12.46,22.84-11.3,51-3.41,58.92-.59,8.29,2.94,21.36,7.72,11.22,15.13-7.13,5.21-30.24,8.68-43.35,10.29a.45.45,0,0,0,.07.9c17.71-.6,55.77-3.74,72-19.44C720.7,381.11,707.08,384.23,688.86,376.13Z" transform="translate(-553.53 -368.6)"/><path class="cls-1" d="M716.65,387.32a47.35,47.35,0,0,1-10.25,6.5V396h10.25a1.82,1.82,0,0,0,1.82-1.82v-5A1.82,1.82,0,0,0,716.65,387.32Z" transform="translate(-553.53 -368.6)"/><path class="cls-1" d="M568.88,396.55h-4.11a5.52,5.52,0,0,0-4.73,2.65,9.79,9.79,0,0,0-1.33,3.72h6.58a5,5,0,0,0,5-5A1.39,1.39,0,0,0,568.88,396.55Z" transform="translate(-553.53 -368.6)"/><path class="cls-1" d="M618.95,383.32h-5.89a4.31,4.31,0,0,0-2.79,1l-4,3.4a.81.81,0,0,0,.52,1.42h3.53a11,11,0,0,0,9.14-4.89A.62.62,0,0,0,618.95,383.32Z" transform="translate(-553.53 -368.6)"/><text class="cls-2" transform="translate(13.15 51.13)">RENT NOW</text><text class="cls-2" transform="translate(31.36 60.92)"><tspan class="cls-3">L</tspan><tspan x="5.2" y="0">OWEST PRICE GUREENTED</tspan></text></svg>